<svg xmlns="http://www.w3.org/2000/svg" xmlns:xlink="http://www.w3.org/1999/xlink" viewBox="0 0 631.76 411.5"><defs><style>.cls-1{fill:#b5bcc9;}.cls-14,.cls-15,.cls-16,.cls-18,.cls-2,.cls-21,.cls-22,.cls-29,.cls-31,.cls-33,.cls-4,.cls-7,.cls-9{fill:none;}.cls-18,.cls-2,.cls-4{stroke:#fff7f4;}.cls-12,.cls-14,.cls-18,.cls-2,.cls-4,.cls-7{stroke-miterlimit:10;}.cls-2{stroke-width:1.74px;}.cls-3{fill:#d9a29d;}.cls-4{stroke-width:1.77px;}.cls-5{fill:#ff7840;}.cls-6{fill:#fffefb;}.cls-14,.cls-7{stroke:#ffd6cf;}.cls-7{stroke-width:0.93px;}.cls-8{fill:#4531ba;}.cls-15,.cls-16,.cls-31,.cls-33,.cls-9{stroke:#fff;}.cls-15,.cls-16,.cls-21,.cls-22,.cls-29,.cls-31,.cls-33,.cls-9{stroke-linecap:round;stroke-linejoin:round;}.cls-9{stroke-width:1.76px;}.cls-10{fill:#ffd6cf;}.cls-11{fill:#ff8c3e;}.cls-12,.cls-19,.cls-30{fill:#fff;}.cls-12{stroke:#4531ba;}.cls-13{fill:#276baf;}.cls-14{stroke-width:1.05px;}.cls-15{stroke-width:1.21px;}.cls-16{stroke-width:2.77px;}.cls-17{fill:#4687d7;}.cls-18{stroke-width:1.81px;}.cls-20{fill:#f1ba9c;}.cls-21{stroke:#e29c79;stroke-width:1.68px;}.cls-22{stroke:#d3d6dd;stroke-width:1.84px;}.cls-23{clip-path:url(#clip-path);}.cls-24{fill:#d3d6dd;}.cls-25{fill:#feffff;}.cls-26{fill:#470b09;}.cls-27{fill:#e29c79;}.cls-28{fill:#101010;}.cls-29{stroke:#470b09;stroke-width:1.58px;}.cls-30{opacity:0.26;}.cls-31{stroke-width:1.62px;}.cls-32{fill:#bf433a;}.cls-33{stroke-width:1.05px;}</style><clipPath id="clip-path" transform="translate(-48.15 -31.42)"><path class="cls-1" d="M379.57,435.47h169L579,315.65a9,9,0,0,0-8.77-11.27H419.89a9.05,9.05,0,0,0-8.77,6.82Z"/></clipPath></defs><g id="OBJECTS"><line class="cls-2" x1="109.28" y1="128.76" x2="500.78" y2="128.76"/><path class="cls-2" d="M544,357.05H162.34a4.91,4.91,0,0,1-4.91-4.92V128.93a4.91,4.91,0,0,1,4.91-4.92H544a4.91,4.91,0,0,1,4.91,4.92v223.2A4.91,4.91,0,0,1,544,357.05Z" transform="translate(-48.15 -31.42)"/><rect class="cls-3" x="40.93" y="39.64" width="59.8" height="4.92" rx="2.46"/><rect class="cls-3" x="603.16" y="148.67" width="28.59" height="4.92" rx="2.46"/><rect class="cls-3" x="2.59" y="327.06" width="28.59" height="4.92" rx="2.46"/><rect class="cls-3" x="494.02" y="327.7" width="52.3" height="4.76" rx="2.38"/><rect class="cls-3" x="209.45" y="32.81" width="8.69" height="8.44" rx="2.12"/><path class="cls-4" d="M193.16,73.12a6.57,6.57,0,1,1-6.56-6.65A6.61,6.61,0,0,1,193.16,73.12Z" transform="translate(-48.15 -31.42)"/><path class="cls-4" d="M650.36,361a6.57,6.57,0,1,1-6.56-6.66A6.6,6.6,0,0,1,650.36,361Z" transform="translate(-48.15 -31.42)"/><path class="cls-4" d="M62.16,240.28a6.56,6.56,0,1,1-6.56-6.65A6.61,6.61,0,0,1,62.16,240.28Z" transform="translate(-48.15 -31.42)"/><rect class="cls-5" x="4.38" y="68.81" width="147.43" height="106.33" rx="6.4"/><rect class="cls-6" x="23.75" y="85.09" width="108.86" height="30.95"/><rect class="cls-6" x="23.75" y="125.77" width="108.86" height="30.95"/><line class="cls-7" x1="63.18" y1="97.54" x2="116.17" y2="97.54"/><line class="cls-7" x1="63.18" y1="104.5" x2="97.54" y2="104.5"/><line class="cls-7" x1="63.18" y1="136.76" x2="116.17" y2="136.76"/><line class="cls-7" x1="63.18" y1="143.72" x2="97.54" y2="143.72"/><circle class="cls-8" cx="92.15" cy="131.98" r="10.21" transform="translate(-101.13 170.19) rotate(-80.71)"/><polyline class="cls-9" points="39.46 101.07 43.28 103.86 47.83 98.09"/><circle class="cls-8" cx="44" cy="141.25" r="10.21"/><polyline class="cls-9" points="39.46 141.76 43.28 144.55 47.83 138.78"/><rect class="cls-10" x="60.95" y="209.17" width="105.07" height="72.46" rx="4.51"/><rect class="cls-2" x="60.95" y="209.17" width="105.07" height="72.46" rx="4.51"/><rect class="cls-10" x="35.05" y="222.17" width="105.07" height="72.46" rx="4.51"/><rect class="cls-8" x="35.05" y="222.17" width="105.07" height="72.46" rx="4.51"/><rect class="cls-11" x="63.24" y="256.13" width="7.82" height="23.11"/><rect class="cls-11" x="77.07" y="246.37" width="7.82" height="32.88"/><rect class="cls-6" x="90.9" y="239.54" width="7.82" height="39.71"/><rect class="cls-6" x="104.72" y="265.07" width="7.82" height="14.17"/><path class="cls-6" d="M169.74,311.39H103.52a.62.62,0,0,1-.62-.62V271.39a.63.63,0,1,1,1.25,0v38.75h65.59a.63.63,0,1,1,0,1.25Z" transform="translate(-48.15 -31.42)"/><path class="cls-12" d="M662.63,160.17h-116a9.61,9.61,0,0,1-9.61-9.61V76.33H672.25v74.23A9.62,9.62,0,0,1,662.63,160.17Z" transform="translate(-48.15 -31.42)"/><path class="cls-8" d="M672.25,59.65V76.33H537V59.65a6,6,0,0,1,6-6H666.25A6,6,0,0,1,672.25,59.65Z" transform="translate(-48.15 -31.42)"/><path class="cls-13" d="M616.91,64a5,5,0,1,0,5-5A5,5,0,0,0,616.91,64Z" transform="translate(-48.15 -31.42)"/><path class="cls-11" d="M621.88,65.88h0A2.86,2.86,0,0,0,624.73,63V50.16a2.85,2.85,0,0,0-2.85-2.85h0A2.85,2.85,0,0,0,619,50.16V63A2.86,2.86,0,0,0,621.88,65.88Z" transform="translate(-48.15 -31.42)"/><path class="cls-13" d="M573.53,64a5,5,0,1,0,5-5A5,5,0,0,0,573.53,64Z" transform="translate(-48.15 -31.42)"/><path class="cls-11" d="M578.5,65.88h0A2.86,2.86,0,0,0,581.35,63V50.16a2.85,2.85,0,0,0-2.85-2.85h0a2.84,2.84,0,0,0-2.85,2.85V63A2.85,2.85,0,0,0,578.5,65.88Z" transform="translate(-48.15 -31.42)"/><rect class="cls-14" x="607" y="93.36" width="20.09" height="20.09" transform="translate(1185.95 175.4) rotate(180)"/><rect class="cls-14" x="580.27" y="93.36" width="20.09" height="20.09" transform="translate(1132.48 175.4) rotate(180)"/><rect class="cls-14" x="553.54" y="93.36" width="20.09" height="20.09" transform="translate(1079.02 175.4) rotate(180)"/><rect class="cls-14" x="607" y="118.87" width="20.09" height="20.09" transform="translate(1185.95 226.41) rotate(180)"/><rect class="cls-8" x="580.27" y="118.87" width="20.09" height="20.09" transform="translate(1132.48 226.41) rotate(180)"/><rect class="cls-14" x="633.86" y="93.36" width="20.09" height="20.09" transform="translate(1239.66 175.4) rotate(180)"/><rect class="cls-14" x="633.86" y="118.87" width="20.09" height="20.09" transform="translate(1239.66 226.41) rotate(180)"/><rect class="cls-14" x="553.54" y="118.87" width="20.09" height="20.09" transform="translate(1079.02 226.41) rotate(180)"/><circle class="cls-6" cx="462.38" cy="111.6" r="36.4" transform="translate(203.05 506.39) rotate(-77.21)"/><rect class="cls-8" x="396" y="68.64" width="36.47" height="22.84"/><polyline class="cls-15" points="396 68.64 413.7 80.18 432.47 68.64"/><circle class="cls-5" cx="379.25" cy="51.84" r="16.05"/><polyline class="cls-16" points="372.11 52.64 378.12 57.03 385.27 47.95"/><path class="cls-6" d="M242,194.84h46.27a3.51,3.51,0,0,1,3.51,3.51v19.9a3.51,3.51,0,0,1-3.51,3.51H245.47a3.51,3.51,0,0,1-3.51-3.51V194.84A0,0,0,0,1,242,194.84Z" transform="translate(485.56 385.19) rotate(180)"/><polygon class="cls-6" points="243.59 184.78 243.63 196.68 233.47 184.81 243.59 184.78"/><path class="cls-17" d="M258.46,208a2.24,2.24,0,1,1-2.25-2.23A2.24,2.24,0,0,1,258.46,208Z" transform="translate(-48.15 -31.42)"/><path class="cls-17" d="M268.07,208a2.24,2.24,0,1,1-2.24-2.23A2.23,2.23,0,0,1,268.07,208Z" transform="translate(-48.15 -31.42)"/><path class="cls-17" d="M277.69,207.94a2.24,2.24,0,1,1-2.25-2.23A2.24,2.24,0,0,1,277.69,207.94Z" transform="translate(-48.15 -31.42)"/><rect class="cls-10" x="184.94" y="0.91" width="137.83" height="63.5" rx="4.7"/><rect class="cls-18" x="184.94" y="0.91" width="137.83" height="63.5" rx="4.7"/><circle class="cls-8" cx="226.07" cy="30.95" r="21.93"/><line class="cls-18" x1="255.47" y1="17.75" x2="301.13" y2="17.75"/><line class="cls-18" x1="255.47" y1="27.69" x2="285.77" y2="27.69"/><path class="cls-6" d="M284,61H264.4a.56.56,0,0,1-.57-.57h0a9.56,9.56,0,0,1,.35-2.71,9.7,9.7,0,0,1,2.7-4.34,10.76,10.76,0,0,1,3.3-2.07,11.15,11.15,0,0,1,8,0,10.6,10.6,0,0,1,3.29,2.07,9.56,9.56,0,0,1,2.86,5,9.11,9.11,0,0,1,.2,2v.06A.57.57,0,0,1,284,61Z" transform="translate(-48.15 -31.42)"/><path class="cls-6" d="M280.7,70.76H267.78a3.91,3.91,0,0,1-3.91-3.91h0a.71.71,0,0,1,.72-.71h19.3a.71.71,0,0,1,.72.71h0A3.91,3.91,0,0,1,280.7,70.76Z" transform="translate(-48.15 -31.42)"/><path class="cls-6" d="M278.09,65a3.86,3.86,0,0,1-2.3-.75,2.51,2.51,0,0,0-3-.07,3.89,3.89,0,0,1-2.92.79,4,4,0,0,1-1.86-.78,2.46,2.46,0,0,0-2.45-.27.75.75,0,0,1-.89-.21h0a.72.72,0,0,1,.28-1.09,3.94,3.94,0,0,1,2-.32,4.4,4.4,0,0,1,2,.83,2.48,2.48,0,0,0,2.85,0,4.25,4.25,0,0,1,1.88-.8,3.9,3.9,0,0,1,2.93.79,2.52,2.52,0,0,0,3-.09,3.85,3.85,0,0,1,2.28-.73,3.72,3.72,0,0,1,1.59.34.71.71,0,0,1,.28,1.09h0a.72.72,0,0,1-.88.21,2.49,2.49,0,0,0-2.48.29A3.88,3.88,0,0,1,278.09,65Z" transform="translate(-48.15 -31.42)"/><rect class="cls-10" x="486.79" y="176.19" width="116.75" height="79.66" rx="4.51"/><rect class="cls-2" x="486.79" y="176.19" width="116.75" height="79.66" rx="4.51"/><path class="cls-19" d="M616.8,234.61a25.45,25.45,0,0,0-9.63-11l-12.68,21.21L569.37,253h0a25.48,25.48,0,1,0,47.43-18.37Z" transform="translate(-48.15 -31.42)"/><path class="cls-5" d="M583,222.1a25.33,25.33,0,0,0-11.89,11.26l23.37,11.5,12.68-21.21A25.41,25.41,0,0,0,583,222.1Z" transform="translate(-48.15 -31.42)"/><path class="cls-8" d="M571.26,233.08l-.14.28A25.36,25.36,0,0,0,569.37,253l25.12-8.12Z" transform="translate(-48.15 -31.42)"/><path class="cls-5" d="M677,330.1H625.44a4.79,4.79,0,0,1-4.79-4.78V277.89a3,3,0,0,1,3-2.95H677a3,3,0,0,1,2.95,2.95v49.26A3,3,0,0,1,677,330.1Z" transform="translate(-48.15 -31.42)"/><path class="cls-6" d="M661.19,300.26l-1.91-.33a9.9,9.9,0,0,0-1-2.38l1.12-1.58a1.47,1.47,0,0,0-.17-1.88L658.1,293a1.46,1.46,0,0,0-1.88-.13l-1.58,1.11a10.32,10.32,0,0,0-2.38-1l-.33-1.95a1.46,1.46,0,0,0-1.41-1.21h-1.65a1.46,1.46,0,0,0-1.44,1.21l-.34,1.9a10.07,10.07,0,0,0-2.37,1l-1.58-1.06a1.47,1.47,0,0,0-1.88.16l-1.14,1.14A1.48,1.48,0,0,0,640,296l1.12,1.58a10.32,10.32,0,0,0-1,2.38l-1.9.33a1.46,1.46,0,0,0-1.21,1.45v1.61a1.45,1.45,0,0,0,1.21,1.45l1.9.33a10.14,10.14,0,0,0,1,2.38L640,309.1a1.47,1.47,0,0,0,.17,1.87l1.14,1.14a1.46,1.46,0,0,0,1.88.17l1.58-1.11a9.87,9.87,0,0,0,2.38,1l.33,1.9a1.47,1.47,0,0,0,1.45,1.22h1.64a1.46,1.46,0,0,0,1.44-1.22l.34-1.9a9.64,9.64,0,0,0,2.37-1l1.55,1.08a1.47,1.47,0,0,0,1.88-.16l1.14-1.14a1.47,1.47,0,0,0,.17-1.88l-1.12-1.6a9.67,9.67,0,0,0,1-2.37l1.91-.34a1.46,1.46,0,0,0,1.21-1.44V301.7A1.46,1.46,0,0,0,661.19,300.26Zm-11.51,7a4.79,4.79,0,1,1,4.79-4.79v0A4.78,4.78,0,0,1,649.68,307.3Z" transform="translate(-48.15 -31.42)"/><text x="-48.15" y="-31.42"/><path class="cls-20" d="M587.43,194.85c-7.24,9.91-25.88,15.09-35.8,7.86s-7.34-24.15-.1-34.06a22.22,22.22,0,0,1,35.9,26.2Z" transform="translate(-48.15 -31.42)"/><path class="cls-20" d="M569.05,159.85s-9.43-7.06-17,1.8-14.41,25.08,2.57,39.63Z" transform="translate(-48.15 -31.42)"/><path class="cls-20" d="M572.78,165.6l13.34-27.75a4.25,4.25,0,0,0-2.14-5.47h0a3.67,3.67,0,0,0-4.72,1.58l-18.62,27.75Z" transform="translate(-48.15 -31.42)"/><path class="cls-21" d="M551.53,168.65l6.76-2.65a21.91,21.91,0,0,1,14.36-.57l3.65,1.11a4.16,4.16,0,0,1,3,4.31h0a4.17,4.17,0,0,1-4.25,3.86l-7.86-.16s9.2,8.2,1.22,22.27" transform="translate(-48.15 -31.42)"/><path class="cls-20" d="M484.87,274l63.72-89.93,25.18,13.53-52.66,99.13A21.41,21.41,0,0,1,488,302h0A21.41,21.41,0,0,1,484.87,274Z" transform="translate(-48.15 -31.42)"/><path class="cls-20" d="M408.67,277.34l89.24-10.49c12.8.26,24.34,4.61,25,17.4h0a24.38,24.38,0,0,1-23.06,25.55L409,328c-12.82.68-23.76-4.37-27-16.78h0A27,27,0,0,1,408.67,277.34Z" transform="translate(-48.15 -31.42)"/><path class="cls-6" d="M455.48,270.64l9.32,52.92L411,333l-33.65-64S419.18,266.82,455.48,270.64Z" transform="translate(-48.15 -31.42)"/><path class="cls-6" d="M343.19,268.85h0c-.23,0-53.82-1.47-79.74,34.64-25.2,35.11-25.11,97.27-25.09,101a.19.19,0,0,0,.19.17H444.62a.18.18,0,0,0,.18-.22l-23-96.42c-4.51-18.88-20.78-35-39.9-38.35C371.65,267.84,359.67,268.32,343.19,268.85Z" transform="translate(-48.15 -31.42)"/><path class="cls-20" d="M260.48,295.54l-75.42,88.1a24.8,24.8,0,0,0,3.13,36.18h0a24.79,24.79,0,0,0,31.89-1.17l72.33-77.23Z" transform="translate(-48.15 -31.42)"/><polygon class="cls-20" points="155.66 393.64 272.53 393.64 270.24 370.81 175.27 355.08 155.66 393.64"/><path class="cls-20" d="M307.26,404.31s50.71-14.09,63.6,20.75H320.68Z" transform="translate(-48.15 -31.42)"/><path class="cls-21" d="M343.73,411.07s14.58,3.36,18.26,14" transform="translate(-48.15 -31.42)"/><path class="cls-21" d="M331.21,414.39s12.52,1.5,17.24,10.67" transform="translate(-48.15 -31.42)"/><line class="cls-21" x1="198.55" y1="358.8" x2="163.74" y2="353.02"/><path class="cls-6" d="M333.05,269.28s-67.59-.88-112.17,64.11l58.56,40.67,51.77-52Z" transform="translate(-48.15 -31.42)"/><polyline class="cls-22" points="259.11 304.81 225.33 338.5 220.62 335.24"/><path class="cls-1" d="M270.52,435.47H390.6V424.9H270.52a5.27,5.27,0,0,0-5.28,5.28h0A5.28,5.28,0,0,0,270.52,435.47Z" transform="translate(-48.15 -31.42)"/><path class="cls-1" d="M379.57,435.47h169L579,315.65a9,9,0,0,0-8.77-11.27H419.89a9.05,9.05,0,0,0-8.77,6.82Z" transform="translate(-48.15 -31.42)"/><g class="cls-23"><path class="cls-24" d="M387.45,435.47h169l30.43-119.82a9,9,0,0,0-8.77-11.27H427.77A9.05,9.05,0,0,0,419,311.2Z" transform="translate(-48.15 -31.42)"/></g><ellipse class="cls-25" cx="493.11" cy="370.73" rx="15.98" ry="13.81" transform="translate(-122.66 580.98) rotate(-60)"/><path class="cls-26" d="M321.66,182.61s-4.29,25.2,26.06,50.95l3.11-12.15Z" transform="translate(-48.15 -31.42)"/><path class="cls-26" d="M396.57,169.31s19.24.19,17.19-12.43c-3.43-21.16-47-19.87-62.45-13.82Z" transform="translate(-48.15 -31.42)"/><path class="cls-26" d="M408.88,188.64a44.56,44.56,0,0,1-47.44,41.48c-24.56-1.65-41.43-23-39.78-47.51s21.19-43.06,45.75-41.41A44.56,44.56,0,0,1,408.88,188.64Z" transform="translate(-48.15 -31.42)"/><circle class="cls-27" cx="408.64" cy="207.6" r="11.99" transform="translate(-15.39 438.47) rotate(-61.84)"/><path class="cls-20" d="M387.74,239.23l-4.91,32.33a21.46,21.46,0,0,1-25.49,17.8h0c-11.83-2.41-21.82-4-19.1-15.77l16.05-68.79Z" transform="translate(-48.15 -31.42)"/><path class="cls-27" d="M384.11,263S349,254.65,349.75,225l37.34,18.89Z" transform="translate(-48.15 -31.42)"/><path class="cls-20" d="M390.29,151.81a30.41,30.41,0,0,1,16.64,18.4c4.22,12.37,10.72,36.33,5.83,55.68-4.12,16.31-18.16,26-39,21.88,0,0-26.58-4.31-30.05-37.06C339,165.43,366.5,141.79,390.29,151.81Z" transform="translate(-48.15 -31.42)"/><path class="cls-28" d="M405.46,200.69a2.74,2.74,0,1,0,2-3.35A2.75,2.75,0,0,0,405.46,200.69Z" transform="translate(-48.15 -31.42)"/><path class="cls-28" d="M382.27,201.08a2.75,2.75,0,1,0,2-3.34A2.75,2.75,0,0,0,382.27,201.08Z" transform="translate(-48.15 -31.42)"/><polyline class="cls-29" points="351.37 171.93 355.32 179.62 352.04 181.65"/><path class="cls-26" d="M389.08,175.34h0a3.78,3.78,0,0,1-3.6,4.3A43.45,43.45,0,0,0,372.69,182a3.29,3.29,0,0,1-4.22-1.8h0A3.43,3.43,0,0,1,370,176a21.61,21.61,0,0,1,15.54-3.9A3.88,3.88,0,0,1,389.08,175.34Z" transform="translate(-48.15 -31.42)"/><path class="cls-26" d="M400.39,183.46h0c.22,2.17,1.68,4,3.15,3.94a21.14,21.14,0,0,1,8.73,1.38c1.2.48,2.26-.38,2.38-2h0a4.64,4.64,0,0,0-1.8-3.94c-2.27-1.68-5.81-4.12-10.81-2.75C400.91,180.37,400.2,181.71,400.39,183.46Z" transform="translate(-48.15 -31.42)"/><path class="cls-30" d="M394.59,198.74a14.21,14.21,0,1,1-15-13.68A14.36,14.36,0,0,1,394.59,198.74Z" transform="translate(-48.15 -31.42)"/><ellipse class="cls-30" cx="415.27" cy="197.43" rx="12.17" ry="13.94" transform="translate(-58.8 -7.25) rotate(-3.29)"/><path class="cls-31" d="M394.59,198.74a14.21,14.21,0,1,1-15-13.68A14.36,14.36,0,0,1,394.59,198.74Z" transform="translate(-48.15 -31.42)"/><ellipse class="cls-31" cx="415.27" cy="197.43" rx="12.17" ry="13.94" transform="translate(-58.8 -7.25) rotate(-3.29)"/><path class="cls-31" d="M394.59,198.74s4.06-3.88,8.52-.61" transform="translate(-48.15 -31.42)"/><line class="cls-31" x1="318.08" y1="168.95" x2="303.88" y2="172.05"/><path class="cls-29" d="M387.05,219.37c-.11.34,6.34,4.4,16.72.26" transform="translate(-48.15 -31.42)"/><path class="cls-26" d="M348.87,206.49s5.39-2.59,3.47-20.07,8.21-25.86,17.06-25,27.37,4.21,37.69-1c0,0-13.74-19-43.41-10.67s-23.6,52.9-23.6,52.9Z" transform="translate(-48.15 -31.42)"/><path class="cls-20" d="M325.49,216.56a14.55,14.55,0,1,0,9.76-18.12A14.55,14.55,0,0,0,325.49,216.56Z" transform="translate(-48.15 -31.42)"/><path class="cls-29" d="M332.87,208.11s10.68-3,13.48,8.72" transform="translate(-48.15 -31.42)"/><path class="cls-20" d="M328.5,269.47l22.39-1.11,28.43.46,10.05-.2s8.48,28.43-27.27,29S328.5,269.47,328.5,269.47Z" transform="translate(-48.15 -31.42)"/><path class="cls-19" d="M131.25,370.17l4,65.08a8.23,8.23,0,0,0,8.21,7.67h27.75a8.22,8.22,0,0,0,8.21-7.71l3.75-65Z" transform="translate(-48.15 -31.42)"/><rect class="cls-32" x="79.94" y="328.06" width="58.27" height="10.69"/><polygon class="cls-32" points="85.7 330.96 88.96 321.69 129.58 321.69 132.46 330.96 85.7 330.96"/><line class="cls-33" x1="87.24" y1="327.5" x2="130.93" y2="327.5"/><polygon class="cls-11" points="133.46 384.2 84.69 384.2 82.57 357.13 135.58 357.13 133.46 384.2"/></g></svg>