<svg xmlns="http://www.w3.org/2000/svg" viewBox="0 0 180.7 417.88"><defs><style>.cls-1{fill:#ff7840;}.cls-2{fill:#1f0004;}.cls-3{fill:#200803;}.cls-11,.cls-14,.cls-4,.cls-7{fill:none;}.cls-11,.cls-4{stroke:#fff;}.cls-4{stroke-miterlimit:10;}.cls-14,.cls-4{stroke-width:1.06px;}.cls-5{fill:#fff;}.cls-6{fill:#2862b7;}.cls-7{stroke:#1f0004;}.cls-11,.cls-14,.cls-7{stroke-linecap:round;stroke-linejoin:round;}.cls-11,.cls-7{stroke-width:0.49px;}.cls-8{fill:#f5b087;}.cls-9{fill:#e09069;}.cls-10{fill:#291c1c;}.cls-12{fill:#8bd5ee;}.cls-13{fill:#afe2fd;}.cls-14{stroke:#cfeae7;}</style></defs><g id="BACKGROUND"><path class="cls-1" d="M535.86,189.11c-32.48,84.79,57.75,146.45-12.79,180.48C479,390.22,371.9,338.81,376.28,263.81c32.21-133.88-37.67-156.37,12.79-180.48C433.14,62.71,541.44,118.14,535.86,189.11Z" transform="translate(-370.1 -39.82)"/></g><g id="OBJECTS"><polygon class="cls-2" points="77.03 395.07 58.91 395.07 28.93 411.1 80.47 410.49 77.03 395.07"/><path class="cls-3" d="M437.94,454a3.18,3.18,0,0,1,3.11,3.19l9.71-.11-.18-6.78-51.54.61.17,6.79,35.61-.44h0A3.18,3.18,0,0,1,437.94,454Z" transform="translate(-370.1 -39.82)"/><line class="cls-4" x1="46.38" y1="400.97" x2="52.32" y2="402.6"/><line class="cls-4" x1="52.19" y1="397.99" x2="58.12" y2="399.62"/><rect class="cls-5" x="58.56" y="369.51" width="18.47" height="25.55"/><polygon class="cls-2" points="101.83 395.07 119.95 395.07 149.93 411.1 98.39 410.49 101.83 395.07"/><path class="cls-3" d="M481.13,454A3.18,3.18,0,0,0,478,457.2l-9.71-.11.18-6.78,51.54.61-.18,6.79-35.6-.44h0A3.19,3.19,0,0,0,481.13,454Z" transform="translate(-370.1 -39.82)"/><line class="cls-4" x1="132.48" y1="400.97" x2="126.54" y2="402.6"/><line class="cls-4" x1="126.67" y1="397.99" x2="120.74" y2="399.62"/><polygon class="cls-5" points="119.03 369.51 100.56 369.51 101.83 395.07 120.3 395.07 119.03 369.51"/><path class="cls-6" d="M483,225.57c1.2,12.83,9.74,199.5,9.74,199.5H467.83l-10.94-167.7-4.49.08-2.91,167.62H424.58s-1.36-174.43.09-199.1Z" transform="translate(-370.1 -39.82)"/><line class="cls-7" x1="75.99" y1="217.66" x2="91.27" y2="217.66"/><path class="cls-8" d="M442,80.75a6.5,6.5,0,1,1-6.66-6.34A6.5,6.5,0,0,1,442,80.75Z" transform="translate(-370.1 -39.82)"/><path class="cls-7" d="M431.85,80s2.59-1.25,5,3.25" transform="translate(-370.1 -39.82)"/><path class="cls-8" d="M465.79,81a6.51,6.51,0,1,0,6.52-6.48A6.51,6.51,0,0,0,465.79,81Z" transform="translate(-370.1 -39.82)"/><path class="cls-7" d="M476,80s-2.62-1.19-5,3.36" transform="translate(-370.1 -39.82)"/><path class="cls-3" d="M442.77,51.42s-5.45-2.16-9.89,4.79c-6.59,10.32,5.7,26.73,5.7,26.73Z" transform="translate(-370.1 -39.82)"/><path class="cls-3" d="M464.89,51.42s5.45-2.16,9.89,4.79c6.59,10.32-5.7,26.73-5.7,26.73Z" transform="translate(-370.1 -39.82)"/><circle class="cls-3" cx="83.49" cy="29.19" r="20.55"/><path class="cls-8" d="M461.3,95s-2.77,3.58-6.11,4.21a10.74,10.74,0,0,1-6.63-1.35s-3.09-3.55-3.09-3.55L443.87,117l19.5-.12Z" transform="translate(-370.1 -39.82)"/><polygon class="cls-9" points="76.34 58.71 92.25 67.62 91.19 55.17 76.34 58.71"/><path class="cls-8" d="M471.52,69.72a81.17,81.17,0,0,1-2.07,18.2c-1,4.41-3.91,7.5-8,10l-.75.46a14.14,14.14,0,0,1-14.28.17h0C442,96,438.91,92.63,438,87.9a100,100,0,0,1-1.87-16.15s-2.5-21.53,16.65-21.54C473.48,50.21,471.52,69.72,471.52,69.72Z" transform="translate(-370.1 -39.82)"/><path class="cls-10" d="M471.21,78.44s-2.42,10.12-7.47,9.11a29.22,29.22,0,0,1-5.61-1.84h0a11.74,11.74,0,0,0-8.93-.09h0a31.79,31.79,0,0,1-5.86,1.93c-5,1-6.79-8.23-6.79-8.23a22.54,22.54,0,0,0,2,12.45A13.41,13.41,0,0,0,446,99.26h0l.27.1h0a21.17,21.17,0,0,0,13.84.37h0c3.11-.76,6.67-2.83,9-8A26.31,26.31,0,0,0,471.21,78.44Z" transform="translate(-370.1 -39.82)"/><path class="cls-2" d="M447,76.1a1.55,1.55,0,0,1-3.1,0,1.55,1.55,0,1,1,3.1,0Z" transform="translate(-370.1 -39.82)"/><path class="cls-2" d="M462.23,76.15a1.55,1.55,0,1,1-1.54-1.55A1.55,1.55,0,0,1,462.23,76.15Z" transform="translate(-370.1 -39.82)"/><polyline class="cls-7" points="82.28 37.31 82.09 42.62 84.31 42.63"/><path class="cls-2" d="M457,65.56s-.45,1.67,2.14,1.71a30.6,30.6,0,0,1,5.51.78,1.58,1.58,0,0,0,1.64-.59h0a.88.88,0,0,0-.15-1.16,10.68,10.68,0,0,0-5.69-2.18C457.36,64.05,457,65.56,457,65.56Z" transform="translate(-370.1 -39.82)"/><path class="cls-2" d="M449.07,65.6s.45,1.67-2.14,1.71a30.6,30.6,0,0,0-5.51.78,1.58,1.58,0,0,1-1.64-.59h0a.88.88,0,0,1,.15-1.16,10.68,10.68,0,0,1,5.69-2.18C448.7,64.09,449.07,65.6,449.07,65.6Z" transform="translate(-370.1 -39.82)"/><path class="cls-11" d="M450.77,88.74s3.75,1.49,6.19-1.06" transform="translate(-370.1 -39.82)"/><path class="cls-3" d="M471.36,58.67a34.67,34.67,0,0,0-32.23-3.38s-8.72-10.73,4.8-14.68S470.12,48.4,471.36,58.67Z" transform="translate(-370.1 -39.82)"/><path class="cls-9" d="M401.07,285l-2.7,16.26a1.73,1.73,0,0,1-1.89,1.43h0a1.72,1.72,0,0,1-1.54-1.83l.51-7.89Z" transform="translate(-370.1 -39.82)"/><path class="cls-8" d="M399.56,259a4.51,4.51,0,0,1,5.83,2.82l1.3,3.91s4.5,7.36,2.36,15.4a31.05,31.05,0,0,0-1.27,10.26,1.93,1.93,0,0,1-1.48,2h0A1.91,1.91,0,0,1,404,292.1a28,28,0,0,1-1.15-8.81L394,301.41a1.5,1.5,0,0,1-2.13.66h0a1.49,1.49,0,0,1-.69-1.57l3.68-23.13s1.36-8.31,1.75-14.15a4.71,4.71,0,0,1,3-4.25Z" transform="translate(-370.1 -39.82)"/><polygon class="cls-8" points="29.83 176.08 26.54 223.04 34.88 224.97 43.36 182.24 29.83 176.08"/><path class="cls-5" d="M420.49,127.79s-15.26,4.26-18.79,35.82c-3.64,32.68-11.87,98.94-11.87,98.94l22.19.59,16.64-109.9Z" transform="translate(-370.1 -39.82)"/><polygon class="cls-12" points="68.42 80.38 61.04 94.19 61.04 186.75 105.86 186.75 105.86 89.99 98.64 80.38 68.42 80.38"/><polygon class="cls-8" points="93.27 77.04 84.3 86.11 73.77 77.16 93.27 77.04"/><polygon class="cls-13" points="73.77 77.16 68.42 80.38 76.34 94.19 84.3 86.11 73.77 77.16"/><polygon class="cls-13" points="93.27 77.04 98.64 80.38 92.27 94.19 84.31 86.11 93.27 77.04"/><polygon class="cls-5" points="68.42 80.38 50.39 87.97 47.69 267.24 74.39 267.24 68.42 80.38"/><line class="cls-14" x1="49.06" y1="177.16" x2="49.06" y2="122.71"/><polyline class="cls-14" points="68 80.83 55.75 94.19 64.27 99.84 58.56 106.49 70.97 160.16"/><polygon class="cls-5" points="98.64 80.38 116.66 87.97 121.9 267.24 95.2 267.24 98.64 80.38"/><polyline class="cls-14" points="99.26 80.83 111.51 94.19 102.99 99.84 108.7 106.49 96.3 160.16"/><path class="cls-5" d="M484,126.85s15.79,1.43,25,31.84a416.82,416.82,0,0,1,10.53,42.64c1.07,5.68-1,14.46-6.61,15.68h0c-5.28,1.13-12.23-5.16-14-10.28l-18.33-53.38Z" transform="translate(-370.1 -39.82)"/><polygon class="cls-6" points="98.73 140.89 108.94 119.03 150.44 111.33 124.96 152.23 118.47 158.37 108.42 160.16 96.5 150.56 98.73 140.89"/><path class="cls-8" d="M491,194.07l-13-1.35s4.3-10.58-9.18-12l1.32-3-2.74.26a9.75,9.75,0,0,0-6.35,3.92l-2.1,4.59A7.74,7.74,0,0,0,457.5,191v2a7.73,7.73,0,0,0,4.18,6.87l10.43,4.55s10.69,4.29,26.39,3.25C498.5,207.71,499.38,197.21,491,194.07Z" transform="translate(-370.1 -39.82)"/><polygon class="cls-5" points="116.94 152.56 112.13 175.2 141.44 177.31 142.8 152.56 116.94 152.56"/><line class="cls-14" x1="125.99" y1="152.23" x2="139.04" y2="152.23"/></g></svg>