<svg xmlns="http://www.w3.org/2000/svg" viewBox="0 0 167.57 405.77"><defs><style>.cls-1,.cls-7{fill:#ff7840;}.cls-1{stroke:#ff7840;}.cls-1,.cls-11{stroke-miterlimit:10;}.cls-2{fill:#101010;}.cls-3{fill:#fff;}.cls-4{fill:#f5b087;}.cls-5{fill:#4531ba;}.cls-10,.cls-11,.cls-6{fill:none;}.cls-10,.cls-6{stroke:#1f0004;stroke-linecap:round;stroke-linejoin:round;}.cls-6{stroke-width:0.49px;}.cls-8{fill:#e09069;}.cls-9{fill:#210702;}.cls-10{stroke-width:0.48px;}.cls-11{stroke:#4531ba;}</style></defs><g id="BACKGROUND"><path class="cls-1" d="M723.84,266.24C743.36,380,615.17,413.88,577.67,383.55c-40.23-74.36,5.13-99.27-17.48-186.6C546.08,100.31,700.77,35.13,706.36,79.64S700,155.1,723.84,266.24Z" transform="translate(-558.78 -45.78)"/></g><g id="OBJECTS"><polygon class="cls-2" points="73.32 384.35 56.3 384.35 28.16 399.4 76.55 398.82 73.32 384.35"/><polygon class="cls-3" points="76.72 405.19 76.55 398.82 28.16 399.4 28.33 405.77 76.72 405.19"/><polygon class="cls-4" points="57.06 360.36 74.41 360.36 73.32 384.35 55.98 384.35 57.06 360.36"/><polygon class="cls-2" points="126.19 384.35 109.18 384.35 81.04 399.4 129.42 398.82 126.19 384.35"/><polygon class="cls-3" points="129.59 405.19 129.42 398.82 81.04 399.4 81.2 405.77 129.59 405.19"/><polygon class="cls-4" points="106.53 360.36 123.88 360.36 126.19 384.35 108.85 384.35 106.53 360.36"/><path class="cls-5" d="M679.4,263.55c1.33-29.08-3.76-44.22-5.92-53.59l-.32-4.29-.79-.18-.23-.84-.25.73-29.08-6.69-30.52-2L611,217.89c-.21,6.23-.68,41.13-.29,47.36l.12,156.46h30.76l1.27-161.34,17.36,161.34,29.07-.68Z" transform="translate(-558.78 -45.78)"/><polygon class="cls-5" points="51.98 185.82 51.98 190.75 120.34 194.37 119.33 186.87 51.98 185.82"/><line class="cls-6" x1="84.03" y1="214.6" x2="69.84" y2="212.25"/><path class="cls-5" d="M651,118.73l18.32.88c2.49,0,7.26,3.43,7,8.24-.58,10.8,7.09,106.83,7.09,106.83l-75.74-1.12,1.47-102.33c.09-3.35.9-9,4.18-9.74l18.42-2.94Z" transform="translate(-558.78 -45.78)"/><polygon class="cls-4" points="98.16 73.14 88.18 72.52 72.98 72.78 67.69 73.62 72.33 90.54 98.16 73.14"/><rect class="cls-3" x="79.57" y="99.96" width="17.96" height="9.36"/><path class="cls-4" d="M591.26,168.28l-4.79,20.3c-1.83,8.09,5,13.33,11.37,14.21h0A11,11,0,0,0,610.2,194L610,169.7Z" transform="translate(-558.78 -45.78)"/><path class="cls-5" d="M613.34,121.49c-.43.11-17.32-.24-25,50.52L609.89,177Z" transform="translate(-558.78 -45.78)"/><line class="cls-6" x1="51.2" y1="129.14" x2="51.55" y2="104.53"/><path class="cls-4" d="M600.52,202.83s29.88-7.7,55-19.3l-6.45-5-45.81,5.92Z" transform="translate(-558.78 -45.78)"/><path class="cls-4" d="M646.29,180s16.24-19.89,24.55,0l1.87,4.12-10.3,5.09L650,186.49Z" transform="translate(-558.78 -45.78)"/><path class="cls-4" d="M624.63,182c-.59.07-7.73-11-18.12-5.54s-4,12.66-4,12.66Z" transform="translate(-558.78 -45.78)"/><path class="cls-6" d="M624,181.86s-16.49-.42-27.53,4" transform="translate(-558.78 -45.78)"/><path class="cls-6" d="M607,176.28a10.46,10.46,0,0,0-6.42,8.16" transform="translate(-558.78 -45.78)"/><path class="cls-5" d="M672.25,120.66S691.93,122,700,174.08L670.84,180Z" transform="translate(-558.78 -45.78)"/><line class="cls-6" x1="112.06" y1="134.17" x2="106.44" y2="108.1"/><path class="cls-4" d="M670.84,180v2.43l-18.7.58-19.85,9.95s30.32,11.1,51.23,9.31a13.18,13.18,0,0,0,12.1-12.76,13.6,13.6,0,0,0-.32-3l-2.25-11Z" transform="translate(-558.78 -45.78)"/><path class="cls-6" d="M632.29,192.91,652.14,183s11.36-.92,18.7-3" transform="translate(-558.78 -45.78)"/><path class="cls-7" d="M650,53.34a10.38,10.38,0,0,1,12.31,7.07c4.47,12.18-8.1,26-8.1,26Z" transform="translate(-558.78 -45.78)"/><path class="cls-7" d="M649.31,58.79s4.36-7.23-3-11.31-11.06.19-18,2.32-14.54-3.33-19.3,4.83c-5.54,9.52,8.34,26.47,8.34,26.47Z" transform="translate(-558.78 -45.78)"/><path class="cls-8" d="M621.66,83.35a6,6,0,1,1-4.5-7.12A6,6,0,0,1,621.66,83.35Z" transform="translate(-558.78 -45.78)"/><polygon class="cls-4" points="72.02 50.84 71.24 73.75 90.94 73.22 85.84 35.32 72.02 50.84"/><polygon class="cls-8" points="71.56 64.32 84.5 49.37 71.97 51.91 71.56 64.32"/><path class="cls-4" d="M622.55,56.6c-6,.8-8.95,7.18-9.54,12.9-.69,6.59-.5,17.07,1.55,22.07,3.17,7.74,10.57,11.89,20.74,9.14,0,0,11-1.41,12.14-19.29C648.75,60.12,635.36,54.89,622.55,56.6Z" transform="translate(-558.78 -45.78)"/><path class="cls-9" d="M616.51,78.39a1.36,1.36,0,1,1-1.09-1.59A1.36,1.36,0,0,1,616.51,78.39Z" transform="translate(-558.78 -45.78)"/><path class="cls-9" d="M628,78.39a1.36,1.36,0,1,1-1.09-1.59A1.36,1.36,0,0,1,628,78.39Z" transform="translate(-558.78 -45.78)"/><polyline class="cls-10" points="59.84 36.03 58.63 40.21 61.05 40.93"/><path class="cls-9" d="M617.71,68.63s.53,1.62-1.48,2a14.19,14.19,0,0,0-3.36.76,1.09,1.09,0,0,1-1.34-.41h0a1.08,1.08,0,0,1,0-1.17,5,5,0,0,1,3.35-2.18C617.25,67.16,617.71,68.63,617.71,68.63Z" transform="translate(-558.78 -45.78)"/><path class="cls-9" d="M624.76,68.7s-.62,1.63,2,1.91a31.54,31.54,0,0,1,5.44,1.31,1.59,1.59,0,0,0,1.7-.43h0a.86.86,0,0,0,0-1.17,10.65,10.65,0,0,0-5.49-2.73C625.27,67.22,624.76,68.7,624.76,68.7Z" transform="translate(-558.78 -45.78)"/><path class="cls-10" d="M619.64,90.33s4.18.88,6.68-1.66" transform="translate(-558.78 -45.78)"/><path class="cls-5" d="M617.72,84.24s19.09,1.61,26.34,9.71c0,0-2.11,6.68-13.22,7.68a17.53,17.53,0,0,1-11-2.69c-2.41-1.7-5.56-5.28-6.38-11.45Z" transform="translate(-558.78 -45.78)"/><line class="cls-11" x1="85.96" y1="33" x2="75.93" y2="43.8"/><line class="cls-11" x1="87.56" y1="41.34" x2="84.36" y2="48.95"/><path class="cls-11" d="M635.69,79.14A7.1,7.1,0,1,1,628.6,72,7.09,7.09,0,0,1,635.69,79.14Z" transform="translate(-558.78 -45.78)"/><path class="cls-11" d="M617.59,79.14c0,3.71-2.29,6.71-5.11,6.71s-5.1-3-5.1-6.71,2.28-6.72,5.1-6.72S617.59,75.43,617.59,79.14Z" transform="translate(-558.78 -45.78)"/><path class="cls-11" d="M617.59,78.94a3.47,3.47,0,0,1,3.91.2" transform="translate(-558.78 -45.78)"/><line class="cls-11" x1="86.78" y1="32.96" x2="76.91" y2="32.96"/><path class="cls-7" d="M645.16,85.16l4.55-16.6c-1.94-4.39-4.88-3.72-4.88-3.72.06-.3-4-2.29-3.92-2.6-16.22-12.4-25.06-1.19-25.06-1.19s4.78-11.91,24.56-10.34c13.94,1.11,18.48,5.8,17.92,14.9-1.13,18.15-3.32,19.83-11.49,32Z" transform="translate(-558.78 -45.78)"/><path class="cls-7" d="M647,60s-8.08,6.36-3.67,14.87l1.42,7.63L654.47,72,652,60.46Z" transform="translate(-558.78 -45.78)"/><path class="cls-7" d="M617.77,59.27s5.29-3.68,8.91,1c7.25,9.31,20.88,10.28,22.32-.63S633,52,633,52,621,55,617.77,59.27Z" transform="translate(-558.78 -45.78)"/><path class="cls-4" d="M655.69,84.07a6.54,6.54,0,1,1-4.94-7.83A6.54,6.54,0,0,1,655.69,84.07Z" transform="translate(-558.78 -45.78)"/><path class="cls-10" d="M652.12,80.51a4.79,4.79,0,0,0-5.78,4.32" transform="translate(-558.78 -45.78)"/></g></svg>